<svg xmlns="http://www.w3.org/2000/svg" viewBox="0 0 240 260"><defs><linearGradient id="body" x2="0" y2="1"><stop stop-color="#fffdf7"/><stop offset="1" stop-color="#fff1df"/></linearGradient><linearGradient id="leaf" x1="0" y1="1" x2="1"><stop stop-color="#46a968"/><stop offset="1" stop-color="#9bd963"/></linearGradient></defs><g stroke="#244a39" stroke-width="7" stroke-linecap="round" stroke-linejoin="round"><path d="M121 63c0-26 13-42 39-48 0 24-13 40-39 48Z" fill="url(#leaf)"/><path d="M117 64C98 40 76 38 57 52c15 22 35 26 60 12Z" fill="url(#leaf)"/><path d="M120 59v26" fill="none"/><path d="M120 77c-42 0-68 29-68 70 0 24 8 41 22 52-12 11-13 28-4 38 10 11 28 9 41-3 6 7 12 10 18 10s12-3 18-10c13 12 31 14 41 3 9-10 8-27-4-38 14-11 22-28 22-52 0-41-27-70-68-70Z" fill="url(#body)"/><path d="M73 186c-12 2-22 9-27 20M167 186c12 2 22 9 27 20" fill="none"/></g><circle cx="94" cy="145" r="7.5" fill="#263f37"/><circle cx="146" cy="145" r="7.5" fill="#263f37"/><path d="M109 164c7 7 15 7 22 0" fill="none" stroke="#d87575" stroke-width="5" stroke-linecap="round"/><circle cx="78" cy="165" r="12" fill="#f7aaa0" opacity=".68"/><circle cx="162" cy="165" r="12" fill="#f7aaa0" opacity=".68"/></svg>