<svg xmlns="http://www.w3.org/2000/svg" viewBox="0 0 900 620"><defs><linearGradient id="sky" x2="0" y2="1"><stop stop-color="#9edbff"/><stop offset=".55" stop-color="#e9f6ee"/><stop offset="1" stop-color="#fff0cf"/></linearGradient><linearGradient id="desk" x2="0" y2="1"><stop stop-color="#f5d6a8"/><stop offset="1" stop-color="#dba96f"/></linearGradient><filter id="blur"><feGaussianBlur stdDeviation="7"/></filter></defs><rect width="900" height="620" fill="#fff9ed"/><rect x="58" y="35" width="785" height="420" rx="28" fill="url(#sky)"/><circle cx="210" cy="135" r="55" fill="#ffe594" opacity=".8"/><g fill="#fff" opacity=".78" filter="url(#blur)"><ellipse cx="350" cy="105" rx="90" ry="28"/><ellipse cx="650" cy="155" rx="110" ry="32"/></g><path d="M58 350Q180 275 310 330T560 315T843 335V455H58Z" fill="#8bc58c" opacity=".78"/><path d="M58 380Q200 325 335 370T600 355T843 365V455H58Z" fill="#6dae72" opacity=".72"/><path d="M58 390C200 350 290 420 430 385S680 350 843 395V455H58Z" fill="#86cbd4" opacity=".65"/><g fill="#9db7bd" opacity=".72"><rect x="350" y="235" width="32" height="110"/><rect x="395" y="200" width="42" height="145"/><rect x="455" y="250" width="27" height="95"/><rect x="510" y="218" width="36" height="127"/><rect x="565" y="260" width="24" height="85"/></g><path d="M58 455H843" stroke="#f4e5cc" stroke-width="18"/><rect y="470" width="900" height="150" fill="url(#desk)"/><g><path d="M70 470V90" stroke="#f0ddbf" stroke-width="26"/><path d="M830 470V90" stroke="#f0ddbf" stroke-width="26"/><path d="M45 70H855" stroke="#f0ddbf" stroke-width="28"/></g><g transform="translate(105 350)"><ellipse cx="45" cy="100" rx="48" ry="13" fill="#587c59" opacity=".16"/><rect x="15" y="62" width="64" height="55" rx="8" fill="#f4ead8"/><g fill="#63a85b"><ellipse cx="18" cy="42" rx="17" ry="36" transform="rotate(-28 18 42)"/><ellipse cx="48" cy="28" rx="18" ry="40" transform="rotate(10 48 28)"/><ellipse cx="74" cy="43" rx="16" ry="34" transform="rotate(30 74 43)"/></g></g><g transform="translate(230 500)"><rect width="155" height="22" rx="6" fill="#426e58"/><rect y="25" width="155" height="22" rx="6" fill="#5f8568"/><rect y="50" width="155" height="22" rx="6" fill="#789879"/></g><g transform="translate(650 500)"><ellipse cx="55" cy="90" rx="70" ry="10" fill="#6f5b45" opacity=".12"/><path d="M12 20h80v75H12z" fill="#fff8e9"/><path d="M92 38h18c27 0 27 38 0 38H92" fill="none" stroke="#fff8e9" stroke-width="14"/><path d="M38 54c14 10 26 10 40 0" fill="none" stroke="#78a85d" stroke-width="4" stroke-linecap="round"/></g></svg>